<?xml version="1.0" encoding="UTF-8"?>
<svg id="Layer_1" xmlns="http://www.w3.org/2000/svg" version="1.1" viewBox="0 0 1190.55 841.89">
  <!-- Generator: Adobe Illustrator 30.2.1, SVG Export Plug-In . SVG Version: 2.1.1 Build 1)  -->
  <defs>
    <style>
      .st0 {
        fill: #fdf8f3;
      }

      .st1 {
        fill: #68c7bd;
        font-family: MyriadPro-Regular, 'Myriad Pro';
        font-size: 137.1px;
      }
    </style>
  </defs>
  <path class="st0" d="M986.31,449.96l-.06,17.26-121.61-.46c-8.26-.04-18.22-7.07-18.27-14.68l-.3-46.36v-.09c0-8.63,8.15-17.53,17.9-17.57l122.11-.52.19,17.25h-109.21c-3.85,0-6.97,3.12-6.97,6.96v9.02h114.26l-.07,13.2h-114.19v9.02c0,3.84,3.12,6.97,6.97,6.97h109.25Z"/>
  <path class="st0" d="M821.38,467.28l-31.27-.16-83.46-54.26c-2.57-1.67-5.97.16-6,3.22l-.39,51.18-25.42-.09.03-79.35,31.06-.11,83.55,54.27c2.58,1.68,5.99-.17,5.99-3.25l.02-51.12,25.82.07.07,79.61Z"/>
  <path class="st0" d="M1166.23,466.26c-12.39,1.32-24.09.98-37.13,1.04l-43.42-27.8c-1.27-.82-2.9-.82-4.18,0l-43.13,27.52-38.83-.27,59.78-36.96c2.45-1.51,2.45-5.07.01-6.59l-56.64-35.31,37.42-.55,41.93,26.34c1.28.8,2.9.79,4.17-.03l40.57-26.2,38.36.3-57.2,35.35c-2.44,1.51-2.46,5.06-.02,6.59l58.31,36.58Z"/>
  <path class="st0" d="M361.57,467.27l-25-.24v-57.56c.02-2.13-1.71-3.87-3.84-3.88l-55.72-.39.28-17.62,143.28-.03-.02,17.79-55.02.11c-2.14,0-3.87,1.74-3.87,3.88l-.08,57.94Z"/>
  <path class="st0" d="M132.57,427.31s0,0-.02,0c-.17-.04-.35-.08-.52-.1.07,0,.14,0,.21-.03,4.41-.59,8.35-2.64,11.35-5.64,3.6-3.6,5.83-8.57,5.83-14.07,0-10.99-8.91-19.89-19.89-19.89h-2.94s-.02,0-.03,0H14.87s-3.86,0-3.86,0v79.58s101.38-.16,101.38-.16c3.39.03,6.85-.06,10.2-.32h5.98c5.49,0,10.47-2.22,14.07-5.82,3.6-3.6,5.82-8.57,5.82-14.07,0-9.62-6.82-17.63-15.88-19.48ZM34.63,403.48h82.96c2.58,0,4.66,2.12,4.66,4.74v7.99c0,2.62-2.09,4.73-4.66,4.73H34.63v-17.47ZM122.24,446.09c0,2.62-2.09,4.73-4.66,4.73H34.63v-17.47h82.96c2.58,0,4.66,2.12,4.66,4.74v7.99Z"/>
  <path class="st0" d="M986.31,449.96v17.26h-123.42c-9.29,0-16.82-7.53-16.82-16.82v-44.77c0-8.63,8.15-17.53,17.9-17.57l122.11-.52.19,17.25h-109.21c-3.85,0-6.97,3.12-6.97,6.96v9.02h114.26l-.07,13.2h-114.19v9.02c0,3.84,3.12,6.97,6.97,6.97h109.25Z"/>
  <path class="st0" d="M155.16,467.37l44.98-66.49c13.2-19.5,41.92-19.5,55.12,0l44.98,66.49h-25.67l-38.38-56.84c-4.07-6.03-12.94-6.06-17.05-.06l-38.96,56.89h-25.01Z"/>
  <path class="st0" d="M397.62,467.37l44.98-66.49c13.2-19.5,41.92-19.5,55.12,0l44.98,66.49h-25.67l-38.38-56.84c-4.07-6.03-12.94-6.06-17.05-.06l-38.96,56.89h-25.01Z"/>
  <text class="st1" transform="translate(584.31 465.88)"><tspan x="0" y="0">/</tspan></text>
</svg>