<?xml version="1.0" encoding="UTF-8"?>
<svg id="Layer_1" data-name="Layer 1" xmlns="http://www.w3.org/2000/svg" viewBox="0 0 1000 300">
  <defs>
    <style>
      .cls-1 {
        fill: #68c7bd;
        font-family: MyriadPro-Regular, 'Myriad Pro';
        font-size: 116.77px;
      }

      .cls-1, .cls-2 {
        isolation: isolate;
      }

      .cls-3 {
        fill: #fdf8f3;
      }
    </style>
  </defs>
  <path class="cls-3" d="M838.71,169.71l-.05,14.7-103.57-.39c-7.03-.03-15.52-6.02-15.56-12.5l-.26-39.48v-.08c0-7.35,6.94-14.93,15.25-14.96l104-.44.16,14.69h-93.01c-3.28,0-5.94,2.66-5.94,5.93v7.68h97.31l-.06,11.24h-97.25v7.68c0,3.27,2.66,5.94,5.94,5.94h93.05Z"/>
  <path class="cls-3" d="M698.24,184.47l-26.63-.14-71.08-46.21c-2.19-1.42-5.08.14-5.11,2.74l-.33,43.59-21.65-.08.03-67.58,26.45-.09,71.16,46.22c2.2,1.43,5.1-.14,5.1-2.77l.02-43.54,21.99.06.06,67.8h0Z"/>
  <path class="cls-3" d="M991.95,183.6c-10.55,1.12-20.52.83-31.62.89l-36.98-23.68c-1.08-.7-2.47-.7-3.56,0l-36.73,23.44-33.07-.23,50.91-31.48c2.09-1.29,2.09-4.32,0-5.61l-48.24-30.07,31.87-.47,35.71,22.43c1.09.68,2.47.67,3.55-.03l34.55-22.31,32.67.26-48.72,30.11c-2.08,1.29-2.1,4.31-.02,5.61l49.66,31.15h0Z"/>
  <path class="cls-3" d="M306.62,184.46l-21.29-.2v-49.02c.02-1.81-1.46-3.3-3.27-3.3l-47.46-.33.24-15.01,122.03-.03-.02,15.15-46.86.09c-1.82,0-3.3,1.48-3.3,3.3l-.07,49.35h0Z"/>
  <path class="cls-3" d="M111.59,150.42h-.02c-.14-.03-.3-.07-.44-.09.06,0,.12,0,.18-.03,3.76-.5,7.11-2.25,9.67-4.8,3.07-3.07,4.97-7.3,4.97-11.98,0-9.36-7.59-16.94-16.94-16.94H8.05v67.78l86.34-.14c2.89.03,5.83-.05,8.69-.27h5.09c4.68,0,8.92-1.89,11.98-4.96,3.07-3.07,4.96-7.3,4.96-11.98,0-8.19-5.81-15.02-13.52-16.59h0ZM28.17,130.13h70.66c2.2,0,3.97,1.81,3.97,4.04v6.81c0,2.23-1.78,4.03-3.97,4.03H28.17v-14.88h0ZM102.79,166.42c0,2.23-1.78,4.03-3.97,4.03H28.17v-14.88h70.66c2.2,0,3.97,1.81,3.97,4.04v6.81h0Z"/>
  <path class="cls-3" d="M838.71,169.71v14.7h-105.12c-7.91,0-14.33-6.41-14.33-14.33v-38.13c0-7.35,6.94-14.93,15.25-14.96l104-.44.16,14.69h-93.01c-3.28,0-5.94,2.66-5.94,5.93v7.68h97.31l-.06,11.24h-97.25v7.68c0,3.27,2.66,5.94,5.94,5.94h93.05Z"/>
  <path class="cls-3" d="M130.83,184.54l38.31-56.63c11.24-16.61,35.7-16.61,46.95,0l38.31,56.63h-21.86l-32.69-48.41c-3.47-5.14-11.02-5.16-14.52-.05l-33.18,48.45h-21.31Z"/>
  <path class="cls-3" d="M337.33,184.54l38.31-56.63c11.24-16.61,35.7-16.61,46.95,0l38.31,56.63h-21.86l-32.69-48.41c-3.47-5.14-11.02-5.16-14.52-.05l-33.18,48.45h-21.31Z"/>
  <g class="cls-2">
    <text class="cls-1" transform="translate(496.33 183.27)"><tspan x="0" y="0">/</tspan></text>
  </g>
</svg>